# xmcd
#
# Track frame offsets:
#	182
#	13507
#	28357
#	44632
#	55882
#	67882
#	86932
#	100957
#	117007
#	131257
#	152332
#	169732
#	186082
#	198757
#	213457
#	227782
#	248482
#	266932
#	280507
#	295357
#	313282
#
# Disc length: 4342 seconds
#
# Revision: 1
# Processed by: cddbd v1.4PL0 Copyright (c) Steve Scherf et al.
# Submitted via: audiograbber 1.82.02
#
DISCID=2e10f415
DTITLE=Various Artist - Looking Forward 2000 Muster Disk1
DYEAR=1900
DGENRE=
TTITLE0=Lee Kernaghan - Bare Essentials
TTITLE1=Troy Cassar-Daley - All Over Town
TTITLE2=Adam Brand - When I Get My Wheels
TTITLE3=Gary Allen - Used Heart For Sale
TTITLE4=TJ Dennis - Look Who's Boots
TTITLE5=Darren Coggan - Mitch
TTITLE6=Beccy Cole - Strong Enough To Bend
TTITLE7=Adam Harvey - When I'm Driving
TTITLE8=Melinda Schneider - Love Out To Get Me
TTITLE9=Kerry Kennedy and Double Barrel - Someday
TTITLE10=Cliff Guy - Age Old Stories
TTITLE11=Grant Richardson - Getting Back To The Country
TTITLE12=Jeff Blunt and Ashley - Wolff Get Together
TTITLE13=Nicole Brophy and Jodi Moore - Ride
TTITLE14=Dale Juner - Bundy Haze
TTITLE15=Samantha Mcclymont - Reach Out
TTITLE16=Broderick Smith - Beulah River
TTITLE17=Felicity - Amazing
TTITLE18=Magnificent 7 - Hey Dwight Yoakam
TTITLE19=Shanley Del - You Love (Is Still On My Mind)
TTITLE20=The Sparnetts - Rollin Along
EXTD=
EXTT0=
EXTT1=
EXTT2=
EXTT3=
EXTT4=
EXTT5=
EXTT6=
EXTT7=
EXTT8=
EXTT9=
EXTT10=
EXTT11=
EXTT12=
EXTT13=
EXTT14=
EXTT15=
EXTT16=
EXTT17=
EXTT18=
EXTT19=
EXTT20=
PLAYORDER=
